# xmcd
#
# Track frame offsets:
#	150
#	13723
#	32349
#	51067
#	70779
#	86499
#	100292
#	116188
#	138755
#	153556
#	173116
#	194196
#	208287
#	225817
#	243889
#	262219
#	289362
#	305279
#
# Disc length: 4318 seconds
#
# Revision: 1
# Processed by: cddbd v1.5.1PL0 Copyright (c) Steve Scherf et al.
# Submitted via: audiograbber 1.83.01
#
DISCID=fd10dc12
DTITLE=Various Greek Artists - Various Greek Artists
DYEAR=1900
DGENRE=Greek
TTITLE0=Antique - I would Die For You
TTITLE1=Narasa  - Katazhteitai
TTITLE2=Triantafylos - Afhste Mhnyma
TTITLE3=Nikos Koyrkoylhs - Pistepse Me
TTITLE4=Lambis Libieratos - Epimenei
TTITLE5=Antonis Remos - Kai Tha Ta Pio
TTITLE6=Anna Vissi - Anna Vissi
TTITLE7=Kaiti Garbi - Aspro H Mauro
TTITLE8=Andreas Stamos - Andreas Stamos
TTITLE9=Xristos Pazis - Xristos Pazis
TTITLE10=Antonis Vardis - Antonis Vardis
TTITLE11=Nektarios Sfirakis - Nektarios Sfirakis
TTITLE12=Maria-Louiza Basilopoulou - Agapise Me
TTITLE13=Thanos Kalliris - Autos O Xeimonas
TTITLE14=Zig Zag - Zig Zag
TTITLE15=Giorgos Alkaios - Giorgos Alkaios
TTITLE16=Filippos Ktenas - Fotia
TTITLE17=Fiannis Tassios - Dyskola H Eukola
EXTD=
EXTT0=
EXTT1=
EXTT2=
EXTT3=
EXTT4=
EXTT5=
EXTT6=
EXTT7=
EXTT8=
EXTT9=
EXTT10=
EXTT11=
EXTT12=
EXTT13=
EXTT14=
EXTT15=
EXTT16=
EXTT17=
PLAYORDER=
